<svg width="1792" height="1792" xmlns="http://www.w3.org/2000/svg">

 <g>
  <title>background</title>
  <rect fill="none" id="canvas_background" height="402" width="582" y="-1" x="-1"/>
 </g>
 <g>
  <title>Layer 1</title>
  <path fill="#ffffff" stroke="null" id="svg_1" d="m1785.778081,520q21.416657,64 -139.673851,294q-22.347816,32 -60.525336,85q-72.630403,100 -83.804311,131q-15.829703,41 13.036226,81q15.829703,21 75.42388,82l0.931159,0l0.931159,1l0.931159,1l1.862318,2q131.29342,131 177.851371,221q2.793477,5 6.052534,12.5t6.518113,26.5t-0.46558,34t-23.278975,27.5t-54.938382,12.5l-238.376706,4q-22.347816,5 -52.144904,-5t-48.420268,-22l-18.62318,-12q-27.93477,-21 -65.181131,-64t-63.784392,-77.5t-56.8007,-58t-52.610484,-15.5q-2.793477,1 -7.449272,3.5t-15.829703,14.5t-20.019919,29.5t-15.829703,52t-6.052534,77.5q0,15 -3.259057,27.5t-6.983693,18.5l-3.724636,5q-16.760862,19 -49.351427,22l-107.083286,0q-66.11229,4 -135.949215,-16.5t-122.44741,-53t-95.909378,-66t-65.64671,-57.5l-23.278975,-24q-9.31159,-10 -25.606873,-30t-66.577869,-91t-98.702855,-151t-114.066979,-211t-121.516251,-272q-5.586954,-16 -5.586954,-27t2.793477,-16l3.724636,-6q13.967385,-19 53.076063,-19l255.137568,-2q11.173908,2 21.416657,6.5t14.898544,8.5l4.655795,3q14.898544,11 22.347816,32q18.62318,50 42.833314,103.5t38.177519,81.5l14.898544,29q27.003611,60 52.144904,104t45.161212,68.5t38.643099,38.5t31.659406,14t25.141293,-5q1.862318,-1 4.655795,-5t11.173908,-22t12.570647,-47t8.846011,-81t0,-125q-1.862318,-40 -8.380431,-73t-13.036226,-46l-5.586954,-12q-23.278975,-34 -79.148516,-43q-12.105067,-2 4.655795,-24q15.829703,-19 35.384042,-30q49.351427,-26 222.547003,-24q76.355039,1 125.706466,13q18.62318,5 31.193827,13.5t19.08876,24t9.77717,32t3.259057,45.5t-0.931159,55t-2.327898,70.5t-1.396739,82.5q0,11 -0.931159,42t-0.46558,48t3.259057,40.5t10.708329,39t20.951078,24.5q7.449272,2 15.829703,4t24.210134,-11t35.384042,-34.5t48.420268,-67t63.318813,-107.5q55.869541,-104 99.634014,-225q3.724636,-10 9.31159,-17.5t10.242749,-10.5l3.724636,-3l4.655795,-2.5l12.105067,-3l18.62318,-0.5l268.173795,-2q36.315201,-5 59.594177,2.5t28.865929,16.5l5.586954,10z"/>
 </g>
</svg>